<?xml version="1.0" encoding="UTF-8"?>
<svg xmlns="http://www.w3.org/2000/svg" viewBox="0 0 64 32" width="64" height="32" fill="none">
  <defs>
    <linearGradient id="g" x1="0" x2="64" y1="0" y2="32" gradientUnits="userSpaceOnUse">
      <stop offset="0" stop-color="#60a5fa"/>
      <stop offset="1" stop-color="#22c55e"/>
    </linearGradient>
  </defs>
  <!-- Simple stylized fish -->
  <path d="M6 16c6-6 18-10 28-8 3 .6 6 1.8 9 3.8l6-3.3c1.1-.6 2.4.5 1.8 1.7l-2.2 4.6c.7 1 .7 1.8 0 2.8l2.2 4.6c.6 1.2-.7 2.3-1.8 1.7l-6-3.3c-3 2-6 3.2-9 3.8-10 2-22-2-28-8Z" fill="url(#g)"/>
  <circle cx="34" cy="13" r="2" fill="#0f172a"/>
  <path d="M6 16c6 6 18 10 28 8" stroke="#0ea5e9" stroke-opacity=".3" stroke-width="2"/>
</svg>
